<svg width="279" height="39" viewBox="0 0 279 39" fill="none" xmlns="http://www.w3.org/2000/svg">
<path d="M26.1211 2.3125C28.8555 2.46875 31.1016 3.52344 32.8594 5.47656C34.6172 7.39062 35.8867 9.57812 36.668 12.0391C37.4492 14.5 37.8398 17.0195 37.8398 19.5977C37.8398 22.1758 37.4492 24.6953 36.668 27.1562C35.9258 29.6172 34.6562 31.8242 32.8594 33.7773C31.1016 35.6914 28.8555 36.7266 26.1211 36.8828H4.55859C3.50391 36.8438 2.60547 36.4727 1.86328 35.7695C1.16016 35.0273 0.789063 34.1289 0.75 33.0742V18.543C0.789063 17.4492 1.19922 16.5508 1.98047 15.8477C2.76172 15.1055 3.69922 14.7344 4.79297 14.7344C5.84766 14.7734 6.74609 15.1641 7.48828 15.9062C8.23047 16.6094 8.62109 17.4883 8.66016 18.543V27.4492C8.66016 28.5039 9.20703 29.0312 10.3008 29.0312H24.1289C25.6133 28.9531 26.8438 28.3867 27.8203 27.332C28.7969 26.2773 29.5 25.0859 29.9297 23.7578C30.3984 22.3906 30.6328 21.0039 30.6328 19.5977C30.6328 18.1914 30.3984 16.8242 29.9297 15.4961C29.5 14.1289 28.7969 12.918 27.8203 11.8633C26.8438 10.8086 25.6133 10.2422 24.1289 10.1641H4.55859C2.21484 9.96875 0.945312 8.69922 0.75 6.35547C0.75 5.26172 1.10156 4.32422 1.80469 3.54297C2.54688 2.76172 3.46484 2.35156 4.55859 2.3125H26.1211ZM62.918 38.2305C60.8867 38.2305 58.875 37.9961 56.8828 37.5273C54.9297 37.0586 53.0547 36.375 51.2578 35.4766C49.4609 34.5391 47.8789 33.3086 46.5117 31.7852C45.1445 30.2617 44.4023 28.4453 44.2852 26.3359V23.875V5.18359C44.2852 4.08984 44.6758 3.19141 45.457 2.48828C46.2773 1.74609 47.2344 1.375 48.3281 1.375C50.6719 1.57031 51.9414 2.83984 52.1367 5.18359V24.5195C52.2148 25.7305 52.6641 26.7461 53.4844 27.5664C54.3438 28.3477 55.2812 28.9727 56.2969 29.4414C57.3516 29.9102 58.4258 30.2617 59.5195 30.4961C60.6523 30.7305 61.7852 30.8477 62.918 30.8477C64.0508 30.8477 65.1641 30.7305 66.2578 30.4961C67.3906 30.2617 68.4648 29.9102 69.4805 29.4414C70.5352 28.9727 71.4727 28.3477 72.293 27.5664C73.1523 26.7461 73.6211 25.7305 73.6992 24.5195V5.18359C73.6992 4.08984 74.0898 3.19141 74.8711 2.48828C75.6914 1.74609 76.6484 1.375 77.7422 1.375C80.0859 1.57031 81.375 2.83984 81.6094 5.18359V23.875V26.3359C81.4922 28.4453 80.7305 30.2617 79.3242 31.7852C77.957 33.3086 76.375 34.5391 74.5781 35.4766C72.7812 36.375 70.8867 37.0586 68.8945 37.5273C66.9414 37.9961 64.9492 38.2305 62.918 38.2305ZM101.824 0.730469C103.191 0.730469 104.52 0.964844 105.809 1.43359C107.137 1.90234 108.406 2.58594 109.617 3.48438C109.812 3.67969 110.027 3.875 110.262 4.07031C110.457 3.875 110.672 3.67969 110.906 3.48438C112.117 2.58594 113.367 1.90234 114.656 1.43359C115.984 0.964844 117.312 0.730469 118.641 0.730469C120.008 0.730469 121.336 0.964844 122.625 1.43359C123.953 1.90234 125.203 2.60547 126.375 3.54297C127.586 4.44141 128.641 5.65234 129.539 7.17578C130.477 8.69922 130.945 10.5156 130.945 12.625V33.7773C130.711 36.1211 129.422 37.3906 127.078 37.5859C125.984 37.5859 125.027 37.2344 124.207 36.5312C123.426 35.7891 123.035 34.8711 123.035 33.7773V13.0938C123.035 12.1562 122.859 11.375 122.508 10.75C122.156 10.0859 121.766 9.57812 121.336 9.22656C120.906 8.83594 120.457 8.5625 119.988 8.40625C119.52 8.21094 119.051 8.11328 118.582 8.11328C118.113 8.11328 117.645 8.21094 117.176 8.40625C116.746 8.5625 116.316 8.83594 115.887 9.22656C115.457 9.57812 115.066 10.0859 114.715 10.75C114.363 11.375 114.168 12.1562 114.129 13.0938V33.7773C113.895 36.1211 112.605 37.3906 110.262 37.5859C109.168 37.5859 108.211 37.2344 107.391 36.5312C106.609 35.7891 106.219 34.8711 106.219 33.7773V13.0938C106.219 12.1562 106.043 11.375 105.691 10.75C105.34 10.0859 104.949 9.57812 104.52 9.22656C104.09 8.83594 103.641 8.5625 103.172 8.40625C102.703 8.21094 102.234 8.11328 101.766 8.11328C101.297 8.11328 100.828 8.21094 100.359 8.40625C99.9297 8.5625 99.5 8.83594 99.0703 9.22656C98.6406 9.57812 98.25 10.0859 97.8984 10.75C97.5469 11.375 97.3516 12.1562 97.3125 13.0938V33.7773C97.1172 36.1211 95.8477 37.3906 93.5039 37.5859C92.4102 37.5859 91.4531 37.2344 90.6328 36.5312C89.8516 35.7891 89.4609 34.8711 89.4609 33.7773V12.625C89.5391 10.5156 90.0273 8.69922 90.9258 7.17578C91.8242 5.65234 92.8789 4.44141 94.0898 3.54297C95.3008 2.60547 96.5508 1.90234 97.8398 1.43359C99.168 0.964844 100.496 0.730469 101.824 0.730469ZM137.098 6.23828C137.098 5.14453 137.469 4.22656 138.211 3.48438C138.992 2.70312 139.93 2.3125 141.023 2.3125H175.125C176.219 2.3125 177.156 2.68359 177.938 3.42578C178.68 4.20703 179.051 5.14453 179.051 6.23828C179.051 7.33203 178.68 8.25 177.938 8.99219C177.703 9.22656 177.469 9.42188 177.234 9.57812L152.391 28.9141H175.125C176.219 28.9141 177.156 29.2852 177.938 30.0273C178.68 30.8086 179.051 31.7461 179.051 32.8398C179.051 33.9336 178.66 34.8711 177.879 35.6523C177.137 36.3945 176.219 36.7656 175.125 36.7656H141.023C139.93 36.7656 139.012 36.375 138.27 35.5938C137.488 34.8516 137.098 33.9336 137.098 32.8398C137.098 31.8242 137.43 30.9453 138.094 30.2031H138.035L138.27 30.0273C138.504 29.793 138.758 29.5977 139.031 29.4414L164.168 10.1641H141.023C139.93 10.1641 139.012 9.77344 138.27 8.99219C137.488 8.25 137.098 7.33203 137.098 6.23828ZM216.609 2.3125C218.602 2.35156 220.379 2.97656 221.941 4.1875C223.504 5.39844 224.754 6.84375 225.691 8.52344C226.668 10.2031 227.391 11.9805 227.859 13.8555C228.328 15.7305 228.562 17.6445 228.562 19.5977C228.562 22.1758 228.152 24.7148 227.332 27.2148C226.551 29.6758 225.242 31.8633 223.406 33.7773C221.609 35.6914 219.344 36.7266 216.609 36.8828H196.16C193.426 36.7656 191.141 35.75 189.305 33.8359C187.469 31.9219 186.16 29.7148 185.379 27.2148C184.637 24.7148 184.266 22.1758 184.266 19.5977C184.266 17.0195 184.656 14.5 185.438 12.0391C186.219 9.53906 187.508 7.33203 189.305 5.41797C191.141 3.46484 193.426 2.42969 196.16 2.3125H197.273H215.496H216.609ZM214.617 29.0312C216.102 28.9531 217.332 28.4062 218.309 27.3906C219.324 26.3359 220.047 25.125 220.477 23.7578C220.906 22.3906 221.121 21.0039 221.121 19.5977C221.121 18.1914 220.887 16.8242 220.418 15.4961C219.988 14.1289 219.285 12.918 218.309 11.8633C217.332 10.8086 216.102 10.2422 214.617 10.1641H197.977C196.492 10.2422 195.262 10.8086 194.285 11.8633C193.309 12.918 192.586 14.1289 192.117 15.4961C191.688 16.8242 191.473 18.1914 191.473 19.5977C191.473 21.0039 191.688 22.3906 192.117 23.7578C192.547 25.125 193.25 26.3359 194.227 27.3906C195.242 28.4062 196.492 28.9531 197.977 29.0312H214.617ZM266.414 2.3125C268.406 2.35156 270.184 2.97656 271.746 4.1875C273.309 5.39844 274.559 6.84375 275.496 8.52344C276.473 10.2031 277.195 11.9805 277.664 13.8555C278.133 15.7305 278.367 17.6445 278.367 19.5977C278.367 22.1758 277.957 24.7148 277.137 27.2148C276.355 29.6758 275.047 31.8633 273.211 33.7773C271.414 35.6914 269.148 36.7266 266.414 36.8828H245.965C243.23 36.7656 240.945 35.75 239.109 33.8359C237.273 31.9219 235.965 29.7148 235.184 27.2148C234.441 24.7148 234.07 22.1758 234.07 19.5977C234.07 17.0195 234.461 14.5 235.242 12.0391C236.023 9.53906 237.312 7.33203 239.109 5.41797C240.945 3.46484 243.23 2.42969 245.965 2.3125H247.078H265.301H266.414ZM264.422 29.0312C265.906 28.9531 267.137 28.4062 268.113 27.3906C269.129 26.3359 269.852 25.125 270.281 23.7578C270.711 22.3906 270.926 21.0039 270.926 19.5977C270.926 18.1914 270.691 16.8242 270.223 15.4961C269.793 14.1289 269.09 12.918 268.113 11.8633C267.137 10.8086 265.906 10.2422 264.422 10.1641H247.781C246.297 10.2422 245.066 10.8086 244.09 11.8633C243.113 12.918 242.391 14.1289 241.922 15.4961C241.492 16.8242 241.277 18.1914 241.277 19.5977C241.277 21.0039 241.492 22.3906 241.922 23.7578C242.352 25.125 243.055 26.3359 244.031 27.3906C245.047 28.4062 246.297 28.9531 247.781 29.0312H264.422Z" fill="black"/>
</svg>
