<svg width="288" height="136" viewBox="0 0 288 136" fill="none" xmlns="http://www.w3.org/2000/svg">
<path d="M8.256 30.024L20.096 30.088C26.2827 30.088 31.7227 32.328 36.416 36.808C41.1093 41.2453 43.456 46.728 43.456 53.256C43.456 59.7413 41.152 65.3093 36.544 69.96C31.9787 74.6107 26.432 76.936 19.904 76.936H8.192C5.58933 76.936 3.968 76.4027 3.328 75.336C2.816 74.44 2.56 73.0747 2.56 71.24V35.656C2.56 34.632 2.58133 33.8853 2.624 33.416C2.70933 32.9467 2.92267 32.392 3.264 31.752C3.86133 30.6 5.52533 30.024 8.256 30.024ZM20.096 65.608C23.168 65.608 25.9413 64.4773 28.416 62.216C30.8907 59.912 32.128 57.032 32.128 53.576C32.128 50.12 30.912 47.24 28.48 44.936C26.0907 42.5893 23.2747 41.416 20.032 41.416H13.888V65.608H20.096ZM78.2785 31.816C78.7052 31.1333 79.3238 30.664 80.1345 30.408C80.9452 30.152 81.9478 30.024 83.1425 30.024C84.3798 30.024 85.3612 30.1307 86.0865 30.344C86.8118 30.5573 87.3665 30.8133 87.7505 31.112C88.1345 31.4107 88.4118 31.8587 88.5825 32.456C88.8385 33.1813 88.9665 34.2907 88.9665 35.784V55.112C88.9665 60.744 87.2172 65.864 83.7185 70.472C82.0118 72.648 79.8145 74.4187 77.1265 75.784C74.4385 77.1067 71.4518 77.768 68.1665 77.768C64.9238 77.768 61.9585 77.0853 59.2705 75.72C56.6252 74.3547 54.4705 72.5627 52.8065 70.344C49.3505 65.8213 47.6225 60.7013 47.6225 54.984V35.72C47.6225 34.696 47.6438 33.9493 47.6865 33.48C47.7718 32.968 47.9852 32.392 48.3265 31.752C48.6678 31.112 49.2438 30.664 50.0545 30.408C50.8652 30.152 51.9532 30.024 53.3185 30.024C54.6838 30.024 55.7718 30.152 56.5825 30.408C57.3932 30.664 57.9478 31.112 58.2465 31.752C58.7585 32.7333 59.0145 34.0773 59.0145 35.784V54.984C59.0145 57.5867 59.6545 60.0613 60.9345 62.408C61.5745 63.6027 62.5345 64.5627 63.8145 65.288C65.0945 66.0133 66.6092 66.376 68.3585 66.376C71.4732 66.376 73.7985 65.224 75.3345 62.92C76.8705 60.616 77.6385 57.9493 77.6385 54.92V35.336C77.6385 33.672 77.8518 32.4987 78.2785 31.816ZM143.916 31.88C144.257 32.52 144.449 33.096 144.492 33.608C144.577 34.12 144.62 34.8667 144.62 35.848V71.368C144.62 74.312 143.809 76.04 142.188 76.552C141.377 76.808 140.353 76.936 139.116 76.936C137.879 76.936 136.897 76.8293 136.172 76.616C135.447 76.4027 134.892 76.1467 134.508 75.848C134.124 75.5493 133.825 75.1227 133.612 74.568C133.399 73.8427 133.292 72.7333 133.292 71.24V49.8C132.225 51.1227 130.668 53.2347 128.62 56.136C126.572 58.9947 125.271 60.7867 124.716 61.512C124.161 62.2373 123.777 62.7493 123.564 63.048C123.351 63.304 122.817 63.688 121.964 64.2C121.153 64.6693 120.257 64.904 119.276 64.904C118.337 64.904 117.463 64.6907 116.652 64.264C115.884 63.7947 115.329 63.3467 114.988 62.92L114.476 62.216C113.623 61.1493 111.937 58.888 109.42 55.432C106.903 51.9333 105.537 50.056 105.324 49.8V71.368C105.324 72.3493 105.281 73.096 105.196 73.608C105.153 74.0773 104.961 74.6107 104.62 75.208C103.98 76.36 102.316 76.936 99.628 76.936C97.0253 76.936 95.404 76.36 94.764 75.208C94.4227 74.6107 94.2093 74.056 94.124 73.544C94.0813 73.032 94.06 72.264 94.06 71.24V35.72C94.06 34.7387 94.0813 34.0133 94.124 33.544C94.2093 33.032 94.4227 32.456 94.764 31.816C95.404 30.7067 97.068 30.152 99.756 30.152C100.908 30.152 101.889 30.3013 102.7 30.6C103.553 30.856 104.108 31.1333 104.364 31.432L104.748 31.816L119.276 50.888C126.529 41.288 131.372 34.952 133.804 31.88C134.529 30.728 136.236 30.152 138.924 30.152C141.655 30.152 143.319 30.728 143.916 31.88ZM181.172 66.056C182.836 66.056 184.03 66.2693 184.756 66.696C185.524 67.08 186.036 67.656 186.292 68.424C186.59 69.192 186.74 70.1733 186.74 71.368C186.74 72.5627 186.633 73.5227 186.42 74.248C186.206 74.9733 185.95 75.528 185.652 75.912C185.353 76.296 184.905 76.5733 184.308 76.744C183.625 77 182.537 77.128 181.044 77.128H154.42C153.438 77.128 152.5 76.872 151.604 76.36C149.726 75.2933 148.788 73.608 148.788 71.304C148.788 70.1947 149.044 69.2987 149.556 68.616L169.396 41.16H154.676C153.652 41.16 152.884 41.1387 152.372 41.096C151.902 41.0107 151.326 40.8187 150.644 40.52C149.406 39.9227 148.788 38.3227 148.788 35.72C148.788 32.9893 149.364 31.3253 150.516 30.728C151.156 30.3867 151.71 30.1947 152.18 30.152C152.692 30.0667 153.46 30.024 154.484 30.024H180.212C181.193 30.024 182.132 30.28 183.028 30.792C183.924 31.304 184.606 31.9867 185.076 32.84C185.588 33.6933 185.844 34.696 185.844 35.848C185.844 37 185.588 37.9173 185.076 38.6L165.236 66.056H181.172Z" fill="black"/>
<path d="M188 50C188 22.3858 210.386 0 238 0V0C265.614 0 288 22.3858 288 50V74.1791C288 90.3769 280.153 105.571 266.946 114.948V114.948C249.611 127.256 226.389 127.256 209.054 114.948V114.948C195.847 105.571 188 90.3769 188 74.1791V50Z" fill="#C4E729"/>
<path d="M214.424 31.738C220.443 31.738 225.668 33.9137 230.101 38.265C234.534 42.6163 236.75 48.025 236.75 54.491C236.75 60.9163 234.635 66.4063 230.406 70.961C226.177 75.475 220.971 77.732 214.79 77.732C208.609 77.732 203.342 75.4953 198.991 71.022C194.68 66.5487 192.525 61.2213 192.525 55.04C192.525 51.6647 193.135 48.513 194.355 45.585C195.575 42.6163 197.202 40.1357 199.235 38.143C201.268 36.1503 203.607 34.5847 206.25 33.446C208.893 32.3073 211.618 31.738 214.424 31.738ZM203.322 54.735C203.322 58.3543 204.481 61.3027 206.799 63.58C209.158 65.8167 211.781 66.935 214.668 66.935C217.555 66.935 220.158 65.837 222.476 63.641C224.794 61.445 225.953 58.4967 225.953 54.796C225.953 51.0953 224.774 48.1267 222.415 45.89C220.097 43.6533 217.494 42.535 214.607 42.535C211.72 42.535 209.117 43.6737 206.799 45.951C204.481 48.1877 203.322 51.1157 203.322 54.735ZM261.723 31.738C267.741 31.738 272.967 33.9137 277.4 38.265C281.832 42.6163 284.049 48.025 284.049 54.491C284.049 60.9163 281.934 66.4063 277.705 70.961C273.475 75.475 268.27 77.732 262.089 77.732C255.907 77.732 250.641 75.4953 246.29 71.022C241.979 66.5487 239.824 61.2213 239.824 55.04C239.824 51.6647 240.434 48.513 241.654 45.585C242.874 42.6163 244.5 40.1357 246.534 38.143C248.567 36.1503 250.905 34.5847 253.549 33.446C256.192 32.3073 258.917 31.738 261.723 31.738ZM250.621 54.735C250.621 58.3543 251.78 61.3027 254.098 63.58C256.456 65.8167 259.079 66.935 261.967 66.935C264.854 66.935 267.457 65.837 269.775 63.641C272.093 61.445 273.252 58.4967 273.252 54.796C273.252 51.0953 272.072 48.1267 269.714 45.89C267.396 43.6533 264.793 42.535 261.906 42.535C259.018 42.535 256.416 43.6737 254.098 45.951C251.78 48.1877 250.621 51.1157 250.621 54.735Z" fill="white"/>
<rect x="232" y="53" width="12" height="3" fill="white"/>
<rect x="210" y="50" width="8" height="9" rx="4" fill="#040404"/>
<rect x="258" y="50" width="8" height="9" rx="4" fill="#040404"/>
</svg>
